<?xml version="1.0" encoding="utf-8"?>
<!-- Generated by IcoMoon.io -->
<svg version="1.1" xmlns="http://www.w3.org/2000/svg" xmlns:xlink="http://www.w3.org/1999/xlink" width="752" height="80" viewBox="0 0 752 80">
<svg id="icon-checkmark" width="32" height="32" viewBox="0 0 32 32" x="0" y="0">
<path d="M16 3c-7.18 0-13 5.82-13 13s5.82 13 13 13 13-5.82 13-13-5.82-13-13-13zM23.258 12.307l-9.486 9.485c-0.238 0.237-0.623 0.237-0.861 0l-0.191-0.191-0.001 0.001-5.219-5.256c-0.238-0.238-0.238-0.624 0-0.862l1.294-1.293c0.238-0.238 0.624-0.238 0.862 0l3.689 3.716 7.756-7.756c0.238-0.238 0.624-0.238 0.862 0l1.294 1.294c0.239 0.237 0.239 0.623 0.001 0.862z"></path>
</svg>
<svg id="icon-cancel" width="32" height="32" viewBox="0 0 32 32" x="48" y="0">
<path d="M16 29c-7.18 0-13-5.82-13-13s5.82-13 13-13 13 5.82 13 13-5.82 13-13 13zM21.961 12.209c0.244-0.244 0.244-0.641 0-0.885l-1.328-1.327c-0.244-0.244-0.641-0.244-0.885 0l-3.761 3.761-3.761-3.761c-0.244-0.244-0.641-0.244-0.885 0l-1.328 1.327c-0.244 0.244-0.244 0.641 0 0.885l3.762 3.762-3.762 3.76c-0.244 0.244-0.244 0.641 0 0.885l1.328 1.328c0.244 0.244 0.641 0.244 0.885 0l3.761-3.762 3.761 3.762c0.244 0.244 0.641 0.244 0.885 0l1.328-1.328c0.244-0.244 0.244-0.641 0-0.885l-3.762-3.76 3.762-3.762z"></path>
</svg>
<svg id="icon-pencil" width="32" height="32" viewBox="0 0 32 32" x="0" y="48">
<path d="M27 0c2.761 0 5 2.239 5 5 0 1.126-0.372 2.164-1 3l-2 2-7-7 2-2c0.836-0.628 1.874-1 3-1zM2 23l-2 9 9-2 18.5-18.5-7-7-18.5 18.5zM22.362 11.362l-14 14-1.724-1.724 14-14 1.724 1.724z"></path>
</svg>
<svg id="icon-bell" width="32" height="32" viewBox="0 0 32 32" x="48" y="48">
<path d="M32.047 25c0-9-8-7-8-14 0-0.58-0.056-1.076-0.158-1.498-0.526-3.532-2.88-6.366-5.93-7.23 0.027-0.123 0.041-0.251 0.041-0.382 0-1.040-0.9-1.891-2-1.891s-2 0.851-2 1.891c0 0.131 0.014 0.258 0.041 0.382-3.421 0.969-5.966 4.416-6.039 8.545-0.001 0.060-0.002 0.121-0.002 0.183 0 7-8 5-8 14 0 2.382 5.331 4.375 12.468 4.878 0.673 1.263 2.002 2.122 3.532 2.122s2.86-0.86 3.532-2.122c7.137-0.503 12.468-2.495 12.468-4.878 0-0.007-0.001-0.014-0.001-0.021l0.048 0.021zM25.82 26.691c-1.695 0.452-3.692 0.777-5.837 0.958-0.178-2.044-1.893-3.648-3.984-3.648s-3.805 1.604-3.984 3.648c-2.144-0.18-4.142-0.506-5.837-0.958-2.332-0.622-3.447-1.318-3.855-1.691 0.408-0.372 1.523-1.068 3.855-1.691 2.712-0.724 6.199-1.122 9.82-1.122s7.109 0.398 9.82 1.122c2.332 0.622 3.447 1.318 3.855 1.691-0.408 0.372-1.523 1.068-3.855 1.691z"></path>
</svg>
<svg id="icon-bin2" width="32" height="32" viewBox="0 0 32 32" x="96" y="48">
<path d="M6 32h20l2-22h-24zM20 4v-4h-8v4h-10v6l2-2h24l2 2v-6h-10zM18 4h-4v-2h4v2z"></path>
</svg>
</svg>
